<svg xmlns="http://www.w3.org/2000/svg" viewBox="0 0 280 560" width="280" height="560">
  <defs>
    <linearGradient id="brandGrad" x1="0%" y1="0%" x2="100%" y2="100%">
      <stop offset="0%" stop-color="#2d6cb4"/>
      <stop offset="50%" stop-color="#4a9bd9"/>
      <stop offset="100%" stop-color="#6bb8e8"/>
    </linearGradient>
    <linearGradient id="mapGrad" x1="0%" y1="0%" x2="0%" y2="100%">
      <stop offset="0%" stop-color="#e8f4e8"/>
      <stop offset="100%" stop-color="#d4e8d0"/>
    </linearGradient>
    <linearGradient id="cardGrad" x1="0%" y1="0%" x2="0%" y2="100%">
      <stop offset="0%" stop-color="#ffffff"/>
      <stop offset="100%" stop-color="#f8fbfe"/>
    </linearGradient>
    <linearGradient id="pinGrad" x1="0%" y1="0%" x2="0%" y2="100%">
      <stop offset="0%" stop-color="#3a87c8"/>
      <stop offset="100%" stop-color="#2d6cb4"/>
    </linearGradient>
    <filter id="shadow1" x="-10%" y="-10%" width="130%" height="140%">
      <feDropShadow dx="0" dy="4" stdDeviation="8" flood-color="#0a1a2e" flood-opacity="0.12"/>
    </filter>
    <filter id="shadow2" x="-10%" y="-10%" width="130%" height="140%">
      <feDropShadow dx="0" dy="2" stdDeviation="4" flood-color="#0a1a2e" flood-opacity="0.1"/>
    </filter>
    <filter id="phoneShadow" x="-15%" y="-5%" width="130%" height="115%">
      <feDropShadow dx="0" dy="8" stdDeviation="16" flood-color="#0a1a2e" flood-opacity="0.18"/>
    </filter>
    <clipPath id="screenClip">
      <rect x="16" y="16" width="248" height="528" rx="20"/>
    </clipPath>
  </defs>

  <g filter="url(#phoneShadow)">
    <rect x="4" y="4" width="272" height="552" rx="36" fill="#1a1a1a"/>
    <rect x="8" y="8" width="264" height="544" rx="33" fill="#2a2a2a"/>
    <rect x="12" y="12" width="256" height="536" rx="28" fill="#1a1a1a"/>
  </g>

  <g clip-path="url(#screenClip)">
    <rect x="16" y="16" width="248" height="528" fill="url(#mapGrad)"/>

    <g opacity="0.3">
      <rect x="16" y="120" width="248" height="3" fill="#c8d8c4" rx="1"/>
      <rect x="16" y="200" width="248" height="5" fill="#c0d0bc" rx="2"/>
      <rect x="16" y="280" width="248" height="3" fill="#c8d8c4" rx="1"/>
      <rect x="16" y="350" width="248" height="4" fill="#c4d4c0" rx="1.5"/>
      <rect x="80" y="80" width="4" height="460" fill="#c4d4c0" rx="1.5"/>
      <rect x="160" y="80" width="5" height="460" fill="#c0d0bc" rx="2"/>
      <rect x="220" y="80" width="3" height="460" fill="#c8d8c4" rx="1"/>
    </g>

    <g opacity="0.15">
      <rect x="30" y="130" width="40" height="60" rx="4" fill="#8a9a86"/>
      <rect x="95" y="140" width="55" height="50" rx="4" fill="#8a9a86"/>
      <rect x="175" y="125" width="35" height="65" rx="4" fill="#8a9a86"/>
      <rect x="30" y="210" width="45" height="60" rx="4" fill="#8a9a86"/>
      <rect x="95" y="220" width="60" height="50" rx="4" fill="#8a9a86"/>
      <rect x="175" y="210" width="50" height="55" rx="4" fill="#8a9a86"/>
      <rect x="30" y="290" width="40" height="50" rx="4" fill="#8a9a86"/>
      <rect x="100" y="295" width="50" height="45" rx="4" fill="#8a9a86"/>
      <rect x="175" y="285" width="45" height="55" rx="4" fill="#8a9a86"/>
    </g>

    <ellipse cx="130" cy="250" rx="30" ry="20" fill="#b8d4b0" opacity="0.4"/>

    <g transform="translate(120, 165)">
      <ellipse cx="12" cy="38" rx="8" ry="3" fill="#0a1a2e" opacity="0.15"/>
      <path d="M12 0C5.4 0 0 5.4 0 12c0 9 12 26 12 26s12-17 12-26C24 5.4 18.6 0 12 0z" fill="url(#pinGrad)"/>
      <circle cx="12" cy="12" r="6" fill="#fff"/>
      <text x="12" y="15.5" text-anchor="middle" font-family="Arial, sans-serif" font-size="9" font-weight="700" fill="#3a87c8">W</text>
    </g>

    <g transform="translate(190, 215)">
      <ellipse cx="8" cy="26" rx="5" ry="2" fill="#0a1a2e" opacity="0.12"/>
      <path d="M8 0C3.6 0 0 3.6 0 8c0 6 8 18 8 18s8-12 8-18C16 3.6 12.4 0 8 0z" fill="#3a87c8" opacity="0.85"/>
      <circle cx="8" cy="8" r="4" fill="#fff"/>
    </g>

    <g transform="translate(60, 260)">
      <ellipse cx="8" cy="26" rx="5" ry="2" fill="#0a1a2e" opacity="0.12"/>
      <path d="M8 0C3.6 0 0 3.6 0 8c0 6 8 18 8 18s8-12 8-18C16 3.6 12.4 0 8 0z" fill="#6bb8e8" opacity="0.85"/>
      <circle cx="8" cy="8" r="4" fill="#fff"/>
    </g>

    <g transform="translate(200, 310)">
      <ellipse cx="8" cy="26" rx="5" ry="2" fill="#0a1a2e" opacity="0.12"/>
      <path d="M8 0C3.6 0 0 3.6 0 8c0 6 8 18 8 18s8-12 8-18C16 3.6 12.4 0 8 0z" fill="#3a87c8" opacity="0.75"/>
      <circle cx="8" cy="8" r="4" fill="#fff"/>
    </g>

    <g transform="translate(140, 280)">
      <circle cx="0" cy="0" r="20" fill="#3a87c8" opacity="0.08">
        <animate attributeName="r" values="12;22;12" dur="2s" repeatCount="indefinite"/>
        <animate attributeName="opacity" values="0.12;0.04;0.12" dur="2s" repeatCount="indefinite"/>
      </circle>
      <circle cx="0" cy="0" r="5" fill="#3a87c8" opacity="0.9"/>
      <circle cx="0" cy="0" r="3" fill="#fff"/>
    </g>

    <rect x="16" y="16" width="248" height="44" fill="#f5f9fd" opacity="0.92"/>
    <text x="40" y="38" font-family="Helvetica Neue, Arial, sans-serif" font-size="11" font-weight="600" fill="#0a1a2e">9:41</text>
    <rect x="104" y="22" width="72" height="22" rx="11" fill="#1a1a1a"/>

    <g filter="url(#shadow2)">
      <rect x="28" y="66" width="224" height="40" rx="20" fill="#fff"/>
      <circle cx="52" cy="86" r="9" fill="none" stroke="#5a7089" stroke-width="1.8"/>
      <line x1="58" y1="92" x2="63" y2="97" stroke="#5a7089" stroke-width="1.8" stroke-linecap="round"/>
      <text x="72" y="90" font-family="Helvetica Neue, Arial, sans-serif" font-size="12" fill="#5a7089" opacity="0.6">Search nearby...</text>
    </g>

    <g transform="translate(28, 116)">
      <rect x="0" y="0" width="42" height="28" rx="14" fill="url(#brandGrad)"/>
      <text x="21" y="18" text-anchor="middle" font-family="Helvetica Neue, Arial, sans-serif" font-size="10" font-weight="600" fill="#fff">All</text>
      <rect x="50" y="0" width="64" height="28" rx="14" fill="#fff" filter="url(#shadow2)"/>
      <text x="82" y="18" text-anchor="middle" font-family="Helvetica Neue, Arial, sans-serif" font-size="10" fill="#0a1a2e" font-weight="500">Ramen</text>
      <rect x="122" y="0" width="56" height="28" rx="14" fill="#fff" filter="url(#shadow2)"/>
      <text x="150" y="18" text-anchor="middle" font-family="Helvetica Neue, Arial, sans-serif" font-size="10" fill="#0a1a2e" font-weight="500">Pizza</text>
      <rect x="186" y="0" width="54" height="28" rx="14" fill="#fff" filter="url(#shadow2)"/>
      <text x="213" y="18" text-anchor="middle" font-family="Helvetica Neue, Arial, sans-serif" font-size="10" fill="#0a1a2e" font-weight="500">Sushi</text>
    </g>

    <g filter="url(#shadow1)">
      <rect x="20" y="408" width="240" height="128" rx="16" fill="url(#cardGrad)"/>
      <rect x="32" y="420" width="72" height="72" rx="12" fill="#deeaf5"/>
      <text x="68" y="464" text-anchor="middle" font-family="Arial, sans-serif" font-size="28">&#x1F35C;</text>
      <text x="116" y="438" font-family="Helvetica Neue, Arial, sans-serif" font-size="13" font-weight="700" fill="#0a1a2e">Sakura Ramen House</text>
      <text x="116" y="454" font-family="Helvetica Neue, Arial, sans-serif" font-size="10" fill="#5a7089">Japanese | 0.3 km away</text>
      <g transform="translate(116, 462)">
        <text x="0" y="12" font-family="Arial, sans-serif" font-size="11" fill="#6bb8e8">&#x2605;&#x2605;&#x2605;&#x2605;</text>
        <text x="48" y="12" font-family="Arial, sans-serif" font-size="11" fill="#d4d0cc">&#x2605;</text>
        <text x="62" y="12" font-family="Helvetica Neue, Arial, sans-serif" font-size="10" font-weight="600" fill="#0a1a2e">4.2</text>
      </g>
      <g transform="translate(116, 484)">
        <text x="0" y="12" font-family="Helvetica Neue, Arial, sans-serif" font-size="10" font-weight="600" fill="#3a87c8">$$</text>
        <rect x="24" y="1" width="52" height="16" rx="8" fill="#eaf2fd"/>
        <text x="50" y="12" text-anchor="middle" font-family="Helvetica Neue, Arial, sans-serif" font-size="8" fill="#3a87c8" font-weight="500">Trending</text>
        <rect x="82" y="1" width="62" height="16" rx="8" fill="#f0f7f0"/>
        <text x="113" y="12" text-anchor="middle" font-family="Helvetica Neue, Arial, sans-serif" font-size="8" fill="#4a8a4a" font-weight="500">Open Now</text>
      </g>
      <rect x="32" y="506" width="216" height="22" rx="11" fill="url(#brandGrad)"/>
      <text x="140" y="521" text-anchor="middle" font-family="Helvetica Neue, Arial, sans-serif" font-size="10" font-weight="600" fill="#fff">View Details</text>
    </g>

    <rect x="104" y="536" width="72" height="4" rx="2" fill="#0a1a2e" opacity="0.15"/>
  </g>

  <rect x="12" y="12" width="256" height="536" rx="28" fill="none" stroke="#3a3a3a" stroke-width="0.5" opacity="0.5"/>
</svg>
